# This file uses centimeters as units for non-parametric coordinates.

mtllib diamond.mtl
g default
v 0.477458 0.437461 -2.126627
v -2.022542 0.437461 -1.314328
v -2.022543 0.437461 1.314328
v 0.477458 0.437461 2.126627
v 2.022543 0.437461 0.000000
v -0.213525 -5.000000 0.000000
v -0.213525 5.000000 0.000000
vt 0.250000 0.500000
vt 0.350000 0.500000
vt 0.450000 0.500000
vt 0.550000 0.500000
vt 0.650000 0.500000
vt 0.750000 0.500000
vt 0.500000 1.000000
vt 0.250000 0.500000
vt 0.350000 0.500000
vt 0.500000 1.000000
vt 0.450000 0.500000
vt 0.550000 0.500000
vt 0.650000 0.500000
vt 0.750000 0.500000
vn -0.293215 -0.315683 -0.902424
vn -0.293215 -0.315683 -0.902424
vn -0.293215 -0.315683 -0.902424
vn -0.948865 -0.315683 -0.000000
vn -0.948865 -0.315683 -0.000000
vn -0.948865 -0.315683 -0.000000
vn -0.293215 -0.315683 0.902424
vn -0.293215 -0.315683 0.902424
vn -0.293215 -0.315683 0.902424
vn 0.767648 -0.315683 0.557729
vn 0.767648 -0.315683 0.557729
vn 0.767648 -0.315683 0.557729
vn 0.767648 -0.315683 -0.557729
vn 0.767648 -0.315683 -0.557729
vn 0.767648 -0.315683 -0.557729
vn -0.287261 0.368579 -0.884099
vn -0.287261 0.368579 -0.884099
vn -0.287261 0.368579 -0.884099
vn -0.929596 0.368579 -0.000000
vn -0.929596 0.368579 -0.000000
vn -0.929596 0.368579 -0.000000
vn -0.287261 0.368579 0.884099
vn -0.287261 0.368579 0.884099
vn -0.287261 0.368579 0.884099
vn 0.752059 0.368579 0.546403
vn 0.752059 0.368579 0.546403
vn 0.752059 0.368579 0.546403
vn 0.752059 0.368579 -0.546403
vn 0.752059 0.368579 -0.546403
vn 0.752059 0.368579 -0.546403
s off
g polySurface1
usemtl initialShadingGroup
f 1/1/1 6/7/2 2/2/3
f 2/2/4 6/7/5 3/3/6
f 3/3/7 6/7/8 4/4/9
f 4/4/10 6/7/11 5/5/12
f 5/5/13 6/7/14 1/6/15
f 1/8/16 2/9/17 7/10/18
f 2/9/19 3/11/20 7/10/21
f 3/11/22 4/12/23 7/10/24
f 4/12/25 5/13/26 7/10/27
f 5/13/28 1/14/29 7/10/30
