# This file uses centimeters as units for non-parametric coordinates.

mtllib Ghost_Dead2.mtl
g default
v -50.930501 7.685076 -23.443924
v -51.836149 7.685076 -24.349572
v -53.073287 7.685076 -24.681062
v -54.310425 7.685076 -24.349572
v -55.216073 7.685076 -23.443924
v -55.547563 7.685076 -22.206786
v -55.216073 7.685076 -20.969648
v -54.310425 7.685076 -20.064000
v -53.073287 7.685076 -19.732510
v -51.836149 7.685076 -20.064000
v -50.930501 7.685076 -20.969648
v -50.599011 7.685076 -22.206786
v -48.997466 7.875547 -24.559962
v -50.720111 7.875547 -26.282606
v -53.073287 7.875547 -26.913138
v -55.426463 7.875547 -26.282606
v -57.149107 7.875547 -24.559962
v -57.779639 7.875547 -22.206786
v -57.149107 7.875547 -19.853610
v -55.426463 7.875547 -18.130966
v -53.073287 7.875547 -17.500434
v -50.720111 7.875547 -18.130966
v -48.997466 7.875547 -19.853610
v -48.366935 7.875547 -22.206786
v -47.463401 1.825126 -25.445655
v -49.834418 8.172689 -27.816672
v -53.073287 1.825126 -28.684524
v -56.312156 8.172689 -27.816672
v -58.683172 1.825126 -25.445655
v -59.551025 8.172689 -22.206786
v -58.683172 1.825126 -18.967917
v -56.312156 8.172689 -16.596900
v -53.073287 1.825126 -15.729048
v -49.834418 8.172689 -16.596900
v -47.463401 1.825126 -18.967917
v -46.595548 8.172689 -22.206786
v -46.478471 2.199341 -26.014305
v -49.265768 8.546903 -28.801602
v -53.073287 2.199341 -29.821824
v -56.880806 8.546903 -28.801602
v -59.668103 2.199341 -26.014305
v -60.688325 8.546903 -22.206786
v -59.668103 2.199341 -18.399267
v -56.880806 8.546903 -15.611970
v -53.073287 2.199341 -14.591748
v -49.265768 8.546903 -15.611970
v -46.478471 2.199341 -18.399267
v -45.458249 8.546903 -22.206786
v -46.139087 2.614070 -26.210248
v -49.069824 8.961631 -29.140986
v -53.073287 2.614070 -30.213711
v -57.076749 8.961631 -29.140986
v -60.007487 2.614070 -26.210248
v -61.080211 8.961631 -22.206786
v -60.007487 2.614070 -18.203324
v -57.076749 8.961631 -15.272586
v -53.073287 2.614070 -14.199861
v -49.069824 8.961631 -15.272586
v -46.139087 2.614070 -18.203324
v -45.066362 8.961631 -22.206786
v -46.478471 20.763952 -26.014305
v -49.265768 20.763952 -28.801602
v -53.073287 20.763952 -29.821824
v -56.880806 20.763952 -28.801602
v -59.668103 20.763952 -26.014305
v -60.688325 20.763952 -22.206786
v -59.668103 20.763952 -18.399267
v -56.880806 20.763952 -15.611970
v -53.073287 20.763952 -14.591748
v -49.265768 20.763952 -15.611970
v -46.478471 20.763952 -18.399267
v -45.458249 20.763952 -22.206786
v -47.463401 22.996029 -25.445655
v -49.834418 22.996029 -27.816672
v -53.073287 22.996029 -28.684524
v -56.312156 22.996029 -27.816672
v -58.683172 22.996029 -25.445655
v -59.551025 22.996029 -22.206786
v -58.683172 22.996029 -18.967917
v -56.312156 22.996029 -16.596900
v -53.073287 22.996029 -15.729048
v -49.834418 22.996029 -16.596900
v -47.463401 22.996029 -18.967917
v -46.595548 22.996029 -22.206786
v -48.997466 24.767414 -24.559962
v -50.720111 24.767414 -26.282606
v -53.073287 24.767414 -26.913138
v -55.426463 24.767414 -26.282606
v -57.149107 24.767414 -24.559962
v -57.779639 24.767414 -22.206786
v -57.149107 24.767414 -19.853610
v -55.426463 24.767414 -18.130966
v -53.073287 24.767414 -17.500434
v -50.720111 24.767414 -18.130966
v -48.997466 24.767414 -19.853610
v -48.366935 24.767414 -22.206786
v -50.930501 25.904714 -23.443924
v -51.836149 25.904714 -24.349572
v -53.073287 25.904714 -24.681062
v -54.310425 25.904714 -24.349572
v -55.216073 25.904714 -23.443924
v -55.547563 25.904714 -22.206786
v -55.216073 25.904714 -20.969648
v -54.310425 25.904714 -20.064000
v -53.073287 25.904714 -19.732510
v -51.836149 25.904714 -20.064000
v -50.930501 25.904714 -20.969648
v -50.599011 25.904714 -22.206786
v -53.073287 7.619349 -22.206786
v -53.073287 26.296600 -22.206786
v -45.262313 14.862791 -22.206786
v -46.308778 14.873217 -18.301299
v -49.167800 14.862791 -15.442277
v -53.073287 14.873217 -14.395812
v -56.978774 14.862791 -15.442277
v -59.837796 14.873217 -18.301299
v -60.884260 14.862791 -22.206786
v -59.837796 14.873217 -26.112273
v -56.978774 14.862791 -28.971295
v -53.073287 14.873215 -30.017760
v -49.167800 14.862791 -28.971295
v -46.308778 14.873215 -26.112273
v -52.687404 14.869782 -29.914460
v -49.563023 14.866306 -29.077095
v -52.687412 20.760519 -29.718527
v -49.641389 20.767294 -28.902155
v -48.895373 14.850450 -28.699450
v -46.608132 14.886775 -26.410986
v -48.973724 20.750723 -28.510183
v -46.743909 20.775976 -26.279175
v -51.606910 18.898694 -29.541972
v -50.669625 18.893998 -29.290776
v -51.606942 19.782302 -29.512449
v -50.693105 19.779254 -29.267815
v -48.132688 15.782753 -27.822574
v -47.446433 15.772667 -27.137070
v -48.156112 16.668333 -27.806028
v -47.487248 16.656963 -27.137504
vt 0.000000 0.100000
vt 0.083333 0.100000
vt 0.166667 0.100000
vt 0.250000 0.100000
vt 0.333333 0.100000
vt 0.416667 0.100000
vt 0.500000 0.100000
vt 0.583333 0.100000
vt 0.666667 0.100000
vt 0.750000 0.100000
vt 0.833333 0.100000
vt 0.916667 0.100000
vt 1.000000 0.100000
vt 0.000000 0.200000
vt 0.083333 0.200000
vt 0.166667 0.200000
vt 0.250000 0.200000
vt 0.333333 0.200000
vt 0.416667 0.200000
vt 0.500000 0.200000
vt 0.583333 0.200000
vt 0.666667 0.200000
vt 0.750000 0.200000
vt 0.833333 0.200000
vt 0.916667 0.200000
vt 1.000000 0.200000
vt 0.000000 0.300000
vt 0.083333 0.300000
vt 0.166667 0.300000
vt 0.250000 0.300000
vt 0.333333 0.300000
vt 0.416667 0.300000
vt 0.500000 0.300000
vt 0.583333 0.300000
vt 0.666667 0.300000
vt 0.750000 0.300000
vt 0.833333 0.300000
vt 0.916667 0.300000
vt 1.000000 0.300000
vt 0.000000 0.400000
vt 0.083333 0.400000
vt 0.166667 0.400000
vt 0.250000 0.400000
vt 0.333333 0.400000
vt 0.416667 0.400000
vt 0.500000 0.400000
vt 0.583333 0.400000
vt 0.666667 0.400000
vt 0.750000 0.400000
vt 0.833333 0.400000
vt 0.916667 0.400000
vt 1.000000 0.400000
vt 0.000000 0.500000
vt 0.083333 0.500000
vt 0.166667 0.500000
vt 0.250000 0.500000
vt 0.333333 0.500000
vt 0.416667 0.500000
vt 0.500000 0.500000
vt 0.583333 0.500000
vt 0.666667 0.500000
vt 0.750000 0.500000
vt 0.833333 0.500000
vt 0.916667 0.500000
vt 1.000000 0.500000
vt 0.000000 0.600000
vt 0.083333 0.600000
vt 0.166667 0.600000
vt 0.250000 0.600000
vt 0.333333 0.600000
vt 0.416667 0.600000
vt 0.500000 0.600000
vt 0.583333 0.600000
vt 0.666667 0.600000
vt 0.750000 0.600000
vt 0.833333 0.600000
vt 0.916667 0.600000
vt 1.000000 0.600000
vt 0.000000 0.700000
vt 0.083333 0.700000
vt 0.166667 0.700000
vt 0.250000 0.700000
vt 0.333333 0.700000
vt 0.416667 0.700000
vt 0.500000 0.700000
vt 0.583333 0.700000
vt 0.666667 0.700000
vt 0.750000 0.700000
vt 0.833333 0.700000
vt 0.916667 0.700000
vt 1.000000 0.700000
vt 0.000000 0.800000
vt 0.083333 0.800000
vt 0.166667 0.800000
vt 0.250000 0.800000
vt 0.333333 0.800000
vt 0.416667 0.800000
vt 0.500000 0.800000
vt 0.583333 0.800000
vt 0.666667 0.800000
vt 0.750000 0.800000
vt 0.833333 0.800000
vt 0.916667 0.800000
vt 1.000000 0.800000
vt 0.000000 0.900000
vt 0.083333 0.900000
vt 0.166667 0.900000
vt 0.250000 0.900000
vt 0.333333 0.900000
vt 0.416667 0.900000
vt 0.500000 0.900000
vt 0.583333 0.900000
vt 0.666667 0.900000
vt 0.750000 0.900000
vt 0.833333 0.900000
vt 0.916667 0.900000
vt 1.000000 0.900000
vt 0.041667 0.000000
vt 0.125000 0.000000
vt 0.208333 0.000000
vt 0.291667 0.000000
vt 0.375000 0.000000
vt 0.458333 0.000000
vt 0.541667 0.000000
vt 0.625000 0.000000
vt 0.708333 0.000000
vt 0.791667 0.000000
vt 0.875000 0.000000
vt 0.958333 0.000000
vt 0.041667 1.000000
vt 0.125000 1.000000
vt 0.208333 1.000000
vt 0.291667 1.000000
vt 0.375000 1.000000
vt 0.458333 1.000000
vt 0.541667 1.000000
vt 0.625000 1.000000
vt 0.708333 1.000000
vt 0.791667 1.000000
vt 0.875000 1.000000
vt 0.958333 1.000000
vt 0.916667 0.550000
vt 0.833333 0.550000
vt 0.750000 0.550000
vt 0.666667 0.550000
vt 0.583333 0.550000
vt 0.500000 0.550000
vt 0.416667 0.550000
vt 0.333333 0.550000
vt 0.250000 0.550000
vt 0.166667 0.550000
vt 0.083333 0.550000
vt 1.000000 0.550000
vt 0.000000 0.550000
vt 0.083333 0.550000
vt 0.166667 0.550000
vt 0.166667 0.600000
vt 0.083333 0.600000
vt 0.000000 0.550000
vt 0.083333 0.550000
vt 0.083333 0.600000
vt 0.000000 0.600000
vt 0.083333 0.550000
vt 0.166667 0.550000
vt 0.166667 0.600000
vt 0.083333 0.600000
vt 0.000000 0.550000
vt 0.083333 0.550000
vt 0.083333 0.600000
vt 0.000000 0.600000
vn 0.034463 -0.997622 -0.059691
vn -0.171977 -0.938987 0.297872
vn -0.412463 -0.879299 0.238135
vn 0.059691 -0.997622 -0.034463
vn 0.000000 -1.000000 -0.000000
vn 0.000000 -0.997622 -0.068926
vn -0.000000 -0.879299 0.476271
vn -0.034463 -0.997622 -0.059691
vn 0.171977 -0.938987 0.297872
vn -0.059691 -0.997622 -0.034463
vn 0.412462 -0.879299 0.238135
vn -0.068926 -0.997622 0.000000
vn 0.343953 -0.938987 0.000000
vn -0.059691 -0.997622 0.034463
vn 0.412463 -0.879299 -0.238135
vn -0.034463 -0.997622 0.059691
vn 0.171977 -0.938987 -0.297872
vn 0.000000 -0.997622 0.068926
vn 0.000000 -0.879299 -0.476271
vn 0.034463 -0.997622 0.059691
vn -0.171977 -0.938987 -0.297872
vn 0.059691 -0.997622 0.034463
vn -0.412462 -0.879299 -0.238135
vn 0.068926 -0.997622 -0.000000
vn -0.343953 -0.938987 -0.000000
vn -0.111688 -0.974732 0.193450
vn -0.603427 -0.717288 0.348389
vn -0.000000 -0.717288 0.696777
vn 0.111688 -0.974732 0.193450
vn 0.603427 -0.717288 0.348389
vn 0.223377 -0.974732 0.000000
vn 0.603427 -0.717288 -0.348389
vn 0.111688 -0.974732 -0.193450
vn 0.000000 -0.717288 -0.696777
vn -0.111688 -0.974732 -0.193450
vn -0.603427 -0.717288 -0.348389
vn -0.223377 -0.974732 -0.000000
vn 0.371765 -0.668702 -0.643916
vn 0.213092 -0.969255 -0.123029
vn -0.000000 -0.969255 -0.246058
vn -0.371765 -0.668702 -0.643916
vn -0.213092 -0.969255 -0.123029
vn -0.743531 -0.668702 -0.000000
vn -0.213092 -0.969255 0.123029
vn -0.371765 -0.668702 0.643916
vn 0.000000 -0.969255 0.246058
vn 0.371765 -0.668702 0.643916
vn 0.213092 -0.969255 0.123029
vn 0.743531 -0.668702 0.000000
vn 0.482752 -0.260383 -0.836152
vn 0.817988 -0.328424 -0.472265
vn -0.000000 -0.328424 -0.944531
vn -0.482752 -0.260383 -0.836152
vn -0.817988 -0.328424 -0.472265
vn -0.965505 -0.260383 -0.000000
vn -0.817988 -0.328424 0.472265
vn -0.482752 -0.260383 0.836152
vn 0.000000 -0.328424 0.944531
vn 0.482752 -0.260383 0.836152
vn 0.817988 -0.328424 0.472265
vn 0.965505 -0.260383 0.000000
vn 0.499704 0.030317 -0.865666
vn 0.837738 0.028273 -0.545341
vn 0.053292 0.029810 -0.998134
vn -0.499811 0.027455 -0.865699
vn -0.865702 0.027337 -0.499813
vn -0.999623 0.027455 0.000000
vn -0.865702 0.027337 0.499813
vn -0.499811 0.027455 0.865699
vn -0.000000 0.027337 0.999626
vn 0.499811 0.027455 0.865699
vn 0.865702 0.027337 0.499813
vn 0.999623 0.027455 0.000000
vn 0.818659 0.207021 -0.535668
vn 0.492231 0.177558 -0.852163
vn 0.404274 0.588431 -0.700223
vn 0.700223 0.588431 -0.404274
vn 0.054849 0.205948 -0.977024
vn 0.000000 0.588431 -0.808547
vn -0.484083 0.250308 -0.838457
vn -0.404274 0.588431 -0.700223
vn -0.838456 0.250310 -0.484083
vn -0.700223 0.588431 -0.404274
vn -0.968166 0.250308 0.000000
vn -0.808547 0.588431 0.000000
vn -0.838456 0.250310 0.484083
vn -0.700223 0.588431 0.404274
vn -0.484083 0.250308 0.838457
vn -0.404274 0.588431 0.700223
vn 0.000000 0.250310 0.968166
vn 0.000000 0.588431 0.808547
vn 0.484083 0.250308 0.838457
vn 0.404274 0.588431 0.700223
vn 0.838456 0.250310 0.484083
vn 0.700223 0.588431 0.404274
vn 0.968166 0.250308 -0.000000
vn 0.808547 0.588431 -0.000000
vn 0.293563 0.809496 -0.508466
vn 0.508466 0.809496 -0.293563
vn 0.000000 0.809496 -0.587126
vn -0.293563 0.809496 -0.508466
vn -0.508466 0.809496 -0.293563
vn -0.587126 0.809496 0.000000
vn -0.508466 0.809496 0.293563
vn -0.293563 0.809496 0.508466
vn 0.000000 0.809496 0.587126
vn 0.293563 0.809496 0.508466
vn 0.508466 0.809496 0.293563
vn 0.587126 0.809496 -0.000000
vn 0.154265 0.951215 -0.267195
vn 0.267195 0.951215 -0.154265
vn 0.000000 0.951215 -0.308530
vn -0.154265 0.951215 -0.267195
vn -0.267195 0.951215 -0.154265
vn -0.308530 0.951215 0.000000
vn -0.267195 0.951215 0.154265
vn -0.154265 0.951215 0.267195
vn 0.000000 0.951215 0.308530
vn 0.154265 0.951215 0.267195
vn 0.267195 0.951215 0.154265
vn 0.308530 0.951215 -0.000000
vn 0.000000 1.000000 -0.000000
vn 0.273028 0.028097 -0.961596
vn 0.244401 0.028154 -0.969265
vn 0.244134 0.048848 -0.968511
vn 0.272769 0.048791 -0.960842
vn 0.695344 0.050595 -0.716894
vn 0.716538 0.050472 -0.695719
vn 0.717291 0.027772 -0.696220
vn 0.696110 0.027895 -0.717393
vn 0.247855 0.030761 -0.968309
vn 0.269324 0.030705 -0.962560
vn 0.248089 0.043762 -0.967748
vn 0.269562 0.043705 -0.961991
vn 0.714123 0.045624 -0.698532
vn 0.698229 0.045730 -0.714412
vn 0.714666 0.029273 -0.698853
vn 0.698781 0.029379 -0.714732
s 1
g pSphere3
usemtl lambert4SG
f 2/2/1 14/15/2 13/14/3 1/1/4 109/118/5
f 3/3/6 15/16/7 14/15/2 2/2/1 109/119/5
f 4/4/8 16/17/9 15/16/7 3/3/6 109/120/5
f 5/5/10 17/18/11 16/17/9 4/4/8 109/121/5
f 6/6/12 18/19/13 17/18/11 5/5/10 109/122/5
f 7/7/14 19/20/15 18/19/13 6/6/12 109/123/5
f 8/8/16 20/21/17 19/20/15 7/7/14 109/124/5
f 9/9/18 21/22/19 20/21/17 8/8/16 109/125/5
f 10/10/20 22/23/21 21/22/19 9/9/18 109/126/5
f 11/11/22 23/24/23 22/23/21 10/10/20 109/127/5
f 12/12/24 24/25/25 23/24/23 11/11/22 109/128/5
f 1/13/4 13/26/3 24/25/25 12/12/24 109/129/5
f 13/14/3 14/15/2 26/28/26 25/27/27
f 14/15/2 15/16/7 27/29/28 26/28/26
f 15/16/7 16/17/9 28/30/29 27/29/28
f 16/17/9 17/18/11 29/31/30 28/30/29
f 17/18/11 18/19/13 30/32/31 29/31/30
f 18/19/13 19/20/15 31/33/32 30/32/31
f 19/20/15 20/21/17 32/34/33 31/33/32
f 20/21/17 21/22/19 33/35/34 32/34/33
f 21/22/19 22/23/21 34/36/35 33/35/34
f 22/23/21 23/24/23 35/37/36 34/36/35
f 23/24/23 24/25/25 36/38/37 35/37/36
f 24/25/25 13/26/3 25/39/27 36/38/37
f 25/27/27 26/28/26 38/41/38 37/40/39
f 26/28/26 27/29/28 39/42/40 38/41/38
f 27/29/28 28/30/29 40/43/41 39/42/40
f 28/30/29 29/31/30 41/44/42 40/43/41
f 29/31/30 30/32/31 42/45/43 41/44/42
f 30/32/31 31/33/32 43/46/44 42/45/43
f 31/33/32 32/34/33 44/47/45 43/46/44
f 32/34/33 33/35/34 45/48/46 44/47/45
f 33/35/34 34/36/35 46/49/47 45/48/46
f 34/36/35 35/37/36 47/50/48 46/49/47
f 35/37/36 36/38/37 48/51/49 47/50/48
f 36/38/37 25/39/27 37/52/39 48/51/49
f 37/40/39 38/41/38 50/54/50 49/53/51
f 38/41/38 39/42/40 51/55/52 50/54/50
f 39/42/40 40/43/41 52/56/53 51/55/52
f 40/43/41 41/44/42 53/57/54 52/56/53
f 41/44/42 42/45/43 54/58/55 53/57/54
f 42/45/43 43/46/44 55/59/56 54/58/55
f 43/46/44 44/47/45 56/60/57 55/59/56
f 44/47/45 45/48/46 57/61/58 56/60/57
f 45/48/46 46/49/47 58/62/59 57/61/58
f 46/49/47 47/50/48 59/63/60 58/62/59
f 47/50/48 48/51/49 60/64/61 59/63/60
f 48/51/49 37/52/39 49/65/51 60/64/61
f 49/53/51 50/54/50 121/152/62 122/154/63
f 50/54/50 51/55/52 120/151/64 121/152/62
f 51/55/52 52/56/53 119/150/65 120/151/64
f 52/56/53 53/57/54 118/149/66 119/150/65
f 53/57/54 54/58/55 117/148/67 118/149/66
f 54/58/55 55/59/56 116/147/68 117/148/67
f 55/59/56 56/60/57 115/146/69 116/147/68
f 56/60/57 57/61/58 114/145/70 115/146/69
f 57/61/58 58/62/59 113/144/71 114/145/70
f 58/62/59 59/63/60 112/143/72 113/144/71
f 59/63/60 60/64/61 111/142/73 112/143/72
f 60/64/61 49/65/51 122/153/63 111/142/73
f 61/66/74 62/67/75 74/80/76 73/79/77
f 62/67/75 63/68/78 75/81/79 74/80/76
f 63/68/78 64/69/80 76/82/81 75/81/79
f 64/69/80 65/70/82 77/83/83 76/82/81
f 65/70/82 66/71/84 78/84/85 77/83/83
f 66/71/84 67/72/86 79/85/87 78/84/85
f 67/72/86 68/73/88 80/86/89 79/85/87
f 68/73/88 69/74/90 81/87/91 80/86/89
f 69/74/90 70/75/92 82/88/93 81/87/91
f 70/75/92 71/76/94 83/89/95 82/88/93
f 71/76/94 72/77/96 84/90/97 83/89/95
f 72/77/96 61/78/74 73/91/77 84/90/97
f 73/79/77 74/80/76 86/93/98 85/92/99
f 74/80/76 75/81/79 87/94/100 86/93/98
f 75/81/79 76/82/81 88/95/101 87/94/100
f 76/82/81 77/83/83 89/96/102 88/95/101
f 77/83/83 78/84/85 90/97/103 89/96/102
f 78/84/85 79/85/87 91/98/104 90/97/103
f 79/85/87 80/86/89 92/99/105 91/98/104
f 80/86/89 81/87/91 93/100/106 92/99/105
f 81/87/91 82/88/93 94/101/107 93/100/106
f 82/88/93 83/89/95 95/102/108 94/101/107
f 83/89/95 84/90/97 96/103/109 95/102/108
f 84/90/97 73/91/77 85/104/99 96/103/109
f 85/92/99 86/93/98 98/106/110 97/105/111
f 86/93/98 87/94/100 99/107/112 98/106/110
f 87/94/100 88/95/101 100/108/113 99/107/112
f 88/95/101 89/96/102 101/109/114 100/108/113
f 89/96/102 90/97/103 102/110/115 101/109/114
f 90/97/103 91/98/104 103/111/116 102/110/115
f 91/98/104 92/99/105 104/112/117 103/111/116
f 92/99/105 93/100/106 105/113/118 104/112/117
f 93/100/106 94/101/107 106/114/119 105/113/118
f 94/101/107 95/102/108 107/115/120 106/114/119
f 95/102/108 96/103/109 108/116/121 107/115/120
f 96/103/109 85/104/99 97/117/111 108/116/121
f 97/105/111 98/106/110 110/130/122
f 98/106/110 99/107/112 110/131/122
f 99/107/112 100/108/113 110/132/122
f 100/108/113 101/109/114 110/133/122
f 101/109/114 102/110/115 110/134/122
f 102/110/115 103/111/116 110/135/122
f 103/111/116 104/112/117 110/136/122
f 104/112/117 105/113/118 110/137/122
f 105/113/118 106/114/119 110/138/122
f 106/114/119 107/115/120 110/139/122
f 107/115/120 108/116/121 110/140/122
f 108/116/121 97/117/111 110/141/122
f 112/143/72 111/142/73 72/77/96 71/76/94
f 113/144/71 112/143/72 71/76/94 70/75/92
f 114/145/70 113/144/71 70/75/92 69/74/90
f 115/146/69 114/145/70 69/74/90 68/73/88
f 116/147/68 115/146/69 68/73/88 67/72/86
f 117/148/67 116/147/68 67/72/86 66/71/84
f 118/149/66 117/148/67 66/71/84 65/70/82
f 119/150/65 118/149/66 65/70/82 64/69/80
f 120/151/64 119/150/65 64/69/80 63/68/78
usemtl lambert3SG
f 132/163/123 131/164/124 133/165/125 134/166/126
f 136/167/127 135/168/128 137/169/129 138/170/130
usemtl lambert4SG
f 111/142/73 122/153/63 61/78/74 72/77/96
usemtl initialShadingGroup
f 121/152/62 120/151/64 123/156/131 124/155/132
usemtl lambert4SG
f 120/151/64 63/68/78 125/157/133 123/156/131
f 63/68/78 62/67/75 126/158/134 125/157/133
f 62/67/75 121/152/62 124/155/132 126/158/134
usemtl initialShadingGroup
f 122/154/63 121/152/62 127/160/135 128/159/136
usemtl lambert4SG
f 121/152/62 62/67/75 129/161/137 127/160/135
f 62/67/75 61/66/74 130/162/138 129/161/137
f 61/66/74 122/154/63 128/159/136 130/162/138
usemtl lambert2SG
f 124/155/132 123/156/131 131/164/124 132/163/123
f 123/156/131 125/157/133 133/165/125 131/164/124
f 125/157/133 126/158/134 134/166/126 133/165/125
f 126/158/134 124/155/132 132/163/123 134/166/126
f 128/159/136 127/160/135 135/168/128 136/167/127
f 127/160/135 129/161/137 137/169/129 135/168/128
f 129/161/137 130/162/138 138/170/130 137/169/129
f 130/162/138 128/159/136 136/167/127 138/170/130
