# This file uses centimeters as units for non-parametric coordinates.

mtllib PacMan_Closed.mtl
g blendShape1Set tweakSet1
v 1.948205 1.349790 -1.124796
v 1.124796 1.349790 -1.948205
v -0.000000 1.349790 -2.249593
v -1.124796 1.349790 -1.948205
v -1.948205 1.349790 -1.124796
v -2.249593 1.349790 0.000000
v -1.948205 1.349790 1.124796
v -1.124796 1.349790 1.948205
v -0.000000 1.349790 2.249593
v 1.124796 1.349790 1.948205
v 1.948205 1.349790 1.124796
v 2.249593 1.349790 0.000000
v 3.705705 2.383814 -2.139490
v 2.139490 2.383814 -3.705705
v -0.000000 2.383814 -4.278979
v -2.139490 2.383814 -3.705705
v -3.705705 2.383814 -2.139490
v -4.278979 2.383814 0.000000
v -3.705705 2.383814 2.139490
v -2.139490 2.383814 3.705705
v -0.000000 2.383814 4.278979
v 2.139490 2.383814 3.705705
v 3.705705 2.383814 2.139490
v 4.278979 2.383814 0.000000
v 5.100465 3.994345 -2.944755
v 2.944755 3.994345 -5.100465
v -0.000000 3.994345 -5.889510
v -2.944755 3.994345 -5.100465
v -5.100465 3.994345 -2.944755
v -5.889510 3.994345 0.000000
v -5.100465 3.994345 2.944755
v -2.944755 3.994345 5.100465
v -0.000000 3.994345 5.889510
v 2.944755 3.994345 5.100465
v 5.100465 3.994345 2.944755
v 5.889510 3.994345 0.000000
v 5.995956 6.023731 -3.461767
v 3.461767 6.023731 -5.995956
v -0.000000 6.023731 -6.923534
v -3.461767 6.023731 -5.995956
v -5.995956 6.023731 -3.461767
v -6.923534 6.023731 0.000000
v -5.995956 6.023731 3.461767
v -3.461767 6.023731 5.995956
v -0.000000 6.023731 6.923534
v 3.461767 6.023731 5.995956
v 5.995956 6.023731 3.461767
v 6.923534 6.023731 0.000000
g blendShape1Set bot tweakSet1
v 6.304522 8.273324 -3.639917
v 3.639917 8.273324 -6.304522
g blendShape1Set tweakSet1
v -0.000000 8.273324 -7.279835
v -3.639917 8.273324 -6.304522
v -6.304522 8.273324 -3.639917
v -7.279835 8.273324 0.000000
v -6.304522 8.273324 3.639917
v -3.639917 8.273324 6.304522
v -0.000000 8.273324 7.279835
g blendShape1Set bot tweakSet1
v 3.639917 8.273324 6.304522
v 6.304522 8.273324 3.639917
v 7.279835 8.273324 0.000000
g blendShape1Set tweakSet1
v 5.995956 10.522917 -3.461767
v 3.461767 10.522917 -5.995956
v -0.000000 10.522917 -6.923534
v -3.461767 10.522917 -5.995956
v -5.995956 10.522917 -3.461767
v -6.923534 10.522917 0.000000
v -5.995956 10.522917 3.461767
v -3.461767 10.522917 5.995956
v -0.000000 10.522917 6.923534
v 3.461767 10.522917 5.995956
v 5.995956 10.522917 3.461767
v 6.923534 10.522917 0.000000
v 5.100465 12.552303 -2.944755
v 2.944755 12.552303 -5.100465
v -0.000000 12.552303 -5.889510
v -2.944755 12.552303 -5.100465
v -5.100465 12.552303 -2.944755
v -5.889510 12.552303 0.000000
v -5.100465 12.552303 2.944755
v -2.944755 12.552303 5.100465
v -0.000000 12.552303 5.889510
v 2.944755 12.552303 5.100465
v 5.100465 12.552303 2.944755
v 5.889510 12.552303 0.000000
v 3.705705 14.162834 -2.139490
v 2.139490 14.162834 -3.705705
v -0.000000 14.162834 -4.278979
v -2.139490 14.162834 -3.705705
v -3.705705 14.162834 -2.139490
v -4.278979 14.162834 0.000000
v -3.705705 14.162834 2.139490
v -2.139490 14.162834 3.705705
v -0.000000 14.162834 4.278979
v 2.139490 14.162834 3.705705
v 3.705705 14.162834 2.139490
v 4.278979 14.162834 0.000000
v 1.948205 15.196858 -1.124796
v 1.124796 15.196858 -1.948205
v -0.000000 15.196858 -2.249593
v -1.124796 15.196858 -1.948205
v -1.948205 15.196858 -1.124796
v -2.249593 15.196858 0.000000
v -1.948205 15.196858 1.124796
v -1.124796 15.196858 1.948205
v -0.000000 15.196858 2.249593
v 1.124796 15.196858 1.948205
v 1.948205 15.196858 1.124796
v 2.249593 15.196858 0.000000
v -0.000000 0.993489 0.000000
v -0.000000 15.553159 0.000000
v -0.000000 8.273324 0.000000
g blendShape1Set bot tweakSet1
v 3.639917 8.273324 0.000000
v 6.304522 8.273324 0.000000
g Top blendShape1Set tweakSet1
v 6.304522 8.273324 -3.639917
v 3.639917 8.273324 -6.304522
v 3.639917 8.273324 6.304522
v 6.304522 8.273324 3.639917
v 7.279835 8.273324 -0.000000
v 6.304522 8.273324 0.000000
v 3.639917 8.273324 0.000000
vt 0.000000 0.100000
vt 0.083333 0.100000
vt 0.166667 0.100000
vt 0.250000 0.100000
vt 0.333333 0.100000
vt 0.416667 0.100000
vt 0.500000 0.100000
vt 0.583333 0.100000
vt 0.666667 0.100000
vt 0.750000 0.100000
vt 0.833333 0.100000
vt 0.916667 0.100000
vt 1.000000 0.100000
vt 0.000000 0.200000
vt 0.083333 0.200000
vt 0.166667 0.200000
vt 0.250000 0.200000
vt 0.333333 0.200000
vt 0.416667 0.200000
vt 0.500000 0.200000
vt 0.583333 0.200000
vt 0.666667 0.200000
vt 0.750000 0.200000
vt 0.833333 0.200000
vt 0.916667 0.200000
vt 1.000000 0.200000
vt 0.000000 0.300000
vt 0.083333 0.300000
vt 0.166667 0.300000
vt 0.250000 0.300000
vt 0.333333 0.300000
vt 0.416667 0.300000
vt 0.500000 0.300000
vt 0.583333 0.300000
vt 0.666667 0.300000
vt 0.750000 0.300000
vt 0.833333 0.300000
vt 0.916667 0.300000
vt 1.000000 0.300000
vt 0.000000 0.400000
vt 0.083333 0.400000
vt 0.166667 0.400000
vt 0.250000 0.400000
vt 0.333333 0.400000
vt 0.416667 0.400000
vt 0.500000 0.400000
vt 0.583333 0.400000
vt 0.666667 0.400000
vt 0.750000 0.400000
vt 0.833333 0.400000
vt 0.916667 0.400000
vt 1.000000 0.400000
vt 0.000000 0.500000
vt 0.083333 0.500000
vt 0.166667 0.500000
vt 0.250000 0.500000
vt 0.333333 0.500000
vt 0.416667 0.500000
vt 0.500000 0.500000
vt 0.583333 0.500000
vt 0.666667 0.500000
vt 0.750000 0.500000
vt 0.833333 0.500000
vt 0.916667 0.500000
vt 1.000000 0.500000
vt 0.000000 0.600000
vt 0.083333 0.600000
vt 0.166667 0.600000
vt 0.250000 0.600000
vt 0.333333 0.600000
vt 0.416667 0.600000
vt 0.500000 0.600000
vt 0.583333 0.600000
vt 0.666667 0.600000
vt 0.750000 0.600000
vt 0.833333 0.600000
vt 0.916667 0.600000
vt 1.000000 0.600000
vt 0.000000 0.700000
vt 0.083333 0.700000
vt 0.166667 0.700000
vt 0.250000 0.700000
vt 0.333333 0.700000
vt 0.416667 0.700000
vt 0.500000 0.700000
vt 0.583333 0.700000
vt 0.666667 0.700000
vt 0.750000 0.700000
vt 0.833333 0.700000
vt 0.916667 0.700000
vt 1.000000 0.700000
vt 0.000000 0.800000
vt 0.083333 0.800000
vt 0.166667 0.800000
vt 0.250000 0.800000
vt 0.333333 0.800000
vt 0.416667 0.800000
vt 0.500000 0.800000
vt 0.583333 0.800000
vt 0.666667 0.800000
vt 0.750000 0.800000
vt 0.833333 0.800000
vt 0.916667 0.800000
vt 1.000000 0.800000
vt 0.000000 0.900000
vt 0.083333 0.900000
vt 0.166667 0.900000
vt 0.250000 0.900000
vt 0.333333 0.900000
vt 0.416667 0.900000
vt 0.500000 0.900000
vt 0.583333 0.900000
vt 0.666667 0.900000
vt 0.750000 0.900000
vt 0.833333 0.900000
vt 0.916667 0.900000
vt 1.000000 0.900000
vt 0.041667 0.000000
vt 0.125000 0.000000
vt 0.208333 0.000000
vt 0.291667 0.000000
vt 0.375000 0.000000
vt 0.458333 0.000000
vt 0.541667 0.000000
vt 0.625000 0.000000
vt 0.708333 0.000000
vt 0.791667 0.000000
vt 0.875000 0.000000
vt 0.958333 0.000000
vt 0.041667 1.000000
vt 0.125000 1.000000
vt 0.208333 1.000000
vt 0.291667 1.000000
vt 0.375000 1.000000
vt 0.458333 1.000000
vt 0.541667 1.000000
vt 0.625000 1.000000
vt 0.708333 1.000000
vt 0.791667 1.000000
vt 0.875000 1.000000
vt 0.958333 1.000000
vt 0.416667 0.500000
vt 0.416667 0.500000
vt 0.416667 0.500000
vt 0.000000 0.500000
vt 1.000000 0.000000
vt 1.000000 1.000000
vt 0.000000 0.000000
vt 1.000000 0.500000
vt 0.000000 1.000000
vt 0.000000 0.000000
vt 1.000000 0.000000
vt 1.000000 1.000000
vt 0.000000 1.000000
vt 0.000000 0.000000
vt 1.000000 0.000000
vt 1.000000 1.000000
vt 0.000000 1.000000
vt 0.000000 0.000000
vt 1.000000 0.000000
vt 1.000000 1.000000
vt 0.000000 1.000000
vt 0.000000 0.000000
vt 1.000000 0.000000
vt 1.000000 1.000000
vt 0.000000 1.000000
vt 0.000000 0.000000
vt 1.000000 0.000000
vt 1.000000 1.000000
vt 0.000000 1.000000
vt 0.000000 0.000000
vt 1.000000 0.000000
vt 1.000000 1.000000
vt 0.000000 1.000000
vt 0.500000 1.000000
vt 0.500000 1.000000
vt 0.500000 1.000000
vt 0.500000 1.000000
vt 0.000000 0.000000
vt 1.000000 0.500000
vt 0.000000 1.000000
vt 0.000000 0.500000
vt 1.000000 0.000000
vt 1.000000 1.000000
vn 0.267195 -0.951215 -0.154265
vn 0.154265 -0.951215 -0.267195
vn 0.293563 -0.809496 -0.508466
vn 0.508466 -0.809496 -0.293563
vn 0.000000 -0.951215 -0.308530
vn -0.000000 -0.809496 -0.587126
vn -0.154265 -0.951215 -0.267195
vn -0.293563 -0.809496 -0.508466
vn -0.267195 -0.951215 -0.154265
vn -0.508466 -0.809496 -0.293563
vn -0.308530 -0.951215 0.000000
vn -0.587126 -0.809496 0.000000
vn -0.267195 -0.951215 0.154265
vn -0.508466 -0.809496 0.293563
vn -0.154265 -0.951215 0.267195
vn -0.293563 -0.809496 0.508466
vn 0.000000 -0.951215 0.308530
vn 0.000000 -0.809496 0.587126
vn 0.154265 -0.951215 0.267195
vn 0.293563 -0.809496 0.508466
vn 0.267195 -0.951215 0.154265
vn 0.508466 -0.809496 0.293563
vn 0.308530 -0.951215 0.000000
vn 0.587126 -0.809496 -0.000000
vn 0.404274 -0.588431 -0.700223
vn 0.700223 -0.588431 -0.404274
vn -0.000000 -0.588431 -0.808547
vn -0.404274 -0.588431 -0.700223
vn -0.700223 -0.588431 -0.404274
vn -0.808547 -0.588431 0.000000
vn -0.700223 -0.588431 0.404274
vn -0.404274 -0.588431 0.700223
vn 0.000000 -0.588431 0.808547
vn 0.404274 -0.588431 0.700223
vn 0.700223 -0.588431 0.404274
vn 0.808547 -0.588431 -0.000000
vn 0.475453 -0.309479 -0.823509
vn 0.823509 -0.309479 -0.475453
vn 0.000000 -0.309479 -0.950906
vn -0.475453 -0.309479 -0.823509
vn -0.823509 -0.309479 -0.475453
vn -0.950906 -0.309479 0.000000
vn -0.823509 -0.309479 0.475453
vn -0.475453 -0.309479 0.823509
vn 0.000000 -0.309479 0.950906
vn 0.475453 -0.309479 0.823509
vn 0.823509 -0.309479 0.475453
vn 0.950906 -0.309479 0.000000
vn 0.493844 -0.156434 -0.855363
vn 0.855363 -0.156434 -0.493844
vn -0.088840 -0.052513 -0.994661
vn -0.500000 0.000000 -0.866025
vn -0.866025 0.000000 -0.500000
vn -1.000000 0.000000 0.000000
vn -0.866025 0.000000 0.500000
vn -0.500000 0.000000 0.866025
vn -0.088840 -0.052513 0.994661
vn 0.493844 -0.156434 0.855363
vn 0.855363 -0.156434 0.493844
vn 0.987688 -0.156434 0.000000
vn -0.475453 0.309479 -0.823509
vn 0.000000 0.309479 -0.950906
vn -0.823509 0.309479 -0.475453
vn -0.950906 0.309479 0.000000
vn -0.823509 0.309479 0.475453
vn -0.475453 0.309479 0.823509
vn 0.000000 0.309479 0.950906
vn 0.823509 0.309479 -0.475453
vn 0.475453 0.309479 -0.823509
vn 0.404274 0.588431 -0.700223
vn 0.700223 0.588431 -0.404274
vn -0.000000 0.588431 -0.808547
vn -0.404274 0.588431 -0.700223
vn -0.700223 0.588431 -0.404274
vn -0.808547 0.588431 -0.000000
vn -0.700223 0.588431 0.404274
vn -0.404274 0.588431 0.700223
vn 0.000000 0.588431 0.808547
vn 0.475453 0.309479 0.823509
vn 0.404274 0.588431 0.700223
vn 0.823509 0.309479 0.475453
vn 0.700223 0.588431 0.404274
vn 0.950906 0.309479 0.000000
vn 0.808547 0.588431 0.000000
vn 0.293563 0.809496 -0.508466
vn 0.508466 0.809496 -0.293563
vn -0.000000 0.809496 -0.587126
vn -0.293563 0.809496 -0.508466
vn -0.508466 0.809496 -0.293563
vn -0.587126 0.809496 -0.000000
vn -0.508466 0.809496 0.293563
vn -0.293563 0.809496 0.508466
vn 0.000000 0.809496 0.587126
vn 0.293563 0.809496 0.508466
vn 0.508466 0.809496 0.293563
vn 0.587126 0.809496 0.000000
vn 0.154265 0.951215 -0.267195
vn 0.267195 0.951215 -0.154265
vn 0.000000 0.951215 -0.308530
vn -0.154265 0.951215 -0.267195
vn -0.267195 0.951215 -0.154265
vn -0.308530 0.951215 0.000000
vn -0.267195 0.951215 0.154265
vn -0.154265 0.951215 0.267195
vn 0.000000 0.951215 0.308530
vn 0.154265 0.951215 0.267195
vn 0.267195 0.951215 0.154265
vn 0.308530 0.951215 -0.000000
vn 0.000000 -1.000000 0.000000
vn 0.000000 1.000000 0.000000
vn 0.000000 1.000000 0.000000
vn 0.000000 1.000000 0.000000
vn 0.000000 1.000000 0.000000
vn 0.000000 1.000000 0.000000
vn 0.000000 1.000000 0.000000
vn 0.000000 1.000000 0.000000
vn 0.000000 1.000000 0.000000
vn 0.000000 1.000000 0.000000
vn 0.000000 1.000000 0.000000
vn 0.000000 1.000000 0.000000
vn 0.000000 1.000000 0.000000
vn 0.000000 1.000000 0.000000
vn 0.000000 1.000000 0.000000
vn 0.000000 1.000000 0.000000
vn 0.000000 1.000000 0.000000
vn 0.855363 0.156434 -0.493844
vn 0.493844 0.156434 -0.855363
vn 0.255843 0.151228 -0.954817
vn 0.255842 0.151228 0.954817
vn 0.493844 0.156434 0.855363
vn 0.855363 0.156434 0.493844
vn 0.987688 0.156434 0.000000
vn 0.000000 -1.000000 0.000000
vn 0.000000 -1.000000 0.000000
vn 0.000000 -1.000000 0.000000
vn 0.000000 -1.000000 0.000000
vn 0.000000 -1.000000 0.000000
vn 0.000000 -1.000000 0.000000
vn 0.000000 -1.000000 0.000000
vn 0.000000 -1.000000 0.000000
vn 0.000000 -1.000000 0.000000
vn 0.000000 -1.000000 0.000000
vn 0.000000 -1.000000 0.000000
vn 0.000000 -1.000000 0.000000
vn 0.000000 -1.000000 0.000000
s 1
g pSphere4
usemtl initialShadingGroup
f 1/1/1 2/2/2 14/15/3 13/14/4
f 2/2/2 3/3/5 15/16/6 14/15/3
f 3/3/5 4/4/7 16/17/8 15/16/6
f 4/4/7 5/5/9 17/18/10 16/17/8
f 5/5/9 6/6/11 18/19/12 17/18/10
f 6/6/11 7/7/13 19/20/14 18/19/12
f 7/7/13 8/8/15 20/21/16 19/20/14
f 8/8/15 9/9/17 21/22/18 20/21/16
f 9/9/17 10/10/19 22/23/20 21/22/18
f 10/10/19 11/11/21 23/24/22 22/23/20
f 11/11/21 12/12/23 24/25/24 23/24/22
f 12/12/23 1/13/1 13/26/4 24/25/24
f 13/14/4 14/15/3 26/28/25 25/27/26
f 14/15/3 15/16/6 27/29/27 26/28/25
f 15/16/6 16/17/8 28/30/28 27/29/27
f 16/17/8 17/18/10 29/31/29 28/30/28
f 17/18/10 18/19/12 30/32/30 29/31/29
f 18/19/12 19/20/14 31/33/31 30/32/30
f 19/20/14 20/21/16 32/34/32 31/33/31
f 20/21/16 21/22/18 33/35/33 32/34/32
f 21/22/18 22/23/20 34/36/34 33/35/33
f 22/23/20 23/24/22 35/37/35 34/36/34
f 23/24/22 24/25/24 36/38/36 35/37/35
f 24/25/24 13/26/4 25/39/26 36/38/36
f 25/27/26 26/28/25 38/41/37 37/40/38
f 26/28/25 27/29/27 39/42/39 38/41/37
f 27/29/27 28/30/28 40/43/40 39/42/39
f 28/30/28 29/31/29 41/44/41 40/43/40
f 29/31/29 30/32/30 42/45/42 41/44/41
f 30/32/30 31/33/31 43/46/43 42/45/42
f 31/33/31 32/34/32 44/47/44 43/46/43
f 32/34/32 33/35/33 45/48/45 44/47/44
f 33/35/33 34/36/34 46/49/46 45/48/45
f 34/36/34 35/37/35 47/50/47 46/49/46
f 35/37/35 36/38/36 48/51/48 47/50/47
f 36/38/36 25/39/26 37/52/38 48/51/48
f 37/40/38 38/41/37 50/54/49 49/53/50
f 38/41/37 39/42/39 51/55/51 50/54/49
f 39/42/39 40/43/40 52/56/52 51/55/51
f 40/43/40 41/44/41 53/57/53 52/56/52
f 41/44/41 42/45/42 54/58/54 53/57/53
f 42/45/42 43/46/43 55/59/55 54/58/54
f 43/46/43 44/47/44 56/60/56 55/59/55
f 44/47/44 45/48/45 57/61/57 56/60/56
f 45/48/45 46/49/46 58/62/58 57/61/57
f 46/49/46 47/50/47 59/63/59 58/62/58
f 47/50/47 48/51/48 60/64/60 59/63/59
f 48/51/48 37/52/38 49/65/50 60/64/60
f 51/55/51 52/56/52 64/69/61 63/68/62
f 52/56/52 53/57/53 65/70/63 64/69/61
f 53/57/53 54/58/54 66/71/64 65/70/63
f 54/58/54 55/59/55 67/72/65 66/71/64
f 55/59/55 56/60/56 68/73/66 67/72/65
f 56/60/56 57/61/57 69/74/67 68/73/66
f 61/66/68 62/67/69 74/80/70 73/79/71
f 62/67/69 63/68/62 75/81/72 74/80/70
f 63/68/62 64/69/61 76/82/73 75/81/72
f 64/69/61 65/70/63 77/83/74 76/82/73
f 65/70/63 66/71/64 78/84/75 77/83/74
f 66/71/64 67/72/65 79/85/76 78/84/75
f 67/72/65 68/73/66 80/86/77 79/85/76
f 68/73/66 69/74/67 81/87/78 80/86/77
f 69/74/67 70/75/79 82/88/80 81/87/78
f 70/75/79 71/76/81 83/89/82 82/88/80
f 71/76/81 72/77/83 84/90/84 83/89/82
f 72/77/83 61/78/68 73/91/71 84/90/84
f 73/79/71 74/80/70 86/93/85 85/92/86
f 74/80/70 75/81/72 87/94/87 86/93/85
f 75/81/72 76/82/73 88/95/88 87/94/87
f 76/82/73 77/83/74 89/96/89 88/95/88
f 77/83/74 78/84/75 90/97/90 89/96/89
f 78/84/75 79/85/76 91/98/91 90/97/90
f 79/85/76 80/86/77 92/99/92 91/98/91
f 80/86/77 81/87/78 93/100/93 92/99/92
f 81/87/78 82/88/80 94/101/94 93/100/93
f 82/88/80 83/89/82 95/102/95 94/101/94
f 83/89/82 84/90/84 96/103/96 95/102/95
f 84/90/84 73/91/71 85/104/86 96/103/96
f 85/92/86 86/93/85 98/106/97 97/105/98
f 86/93/85 87/94/87 99/107/99 98/106/97
f 87/94/87 88/95/88 100/108/100 99/107/99
f 88/95/88 89/96/89 101/109/101 100/108/100
f 89/96/89 90/97/90 102/110/102 101/109/101
f 90/97/90 91/98/91 103/111/103 102/110/102
f 91/98/91 92/99/92 104/112/104 103/111/103
f 92/99/92 93/100/93 105/113/105 104/112/104
f 93/100/93 94/101/94 106/114/106 105/113/105
f 94/101/94 95/102/95 107/115/107 106/114/106
f 95/102/95 96/103/96 108/116/108 107/115/107
f 96/103/96 85/104/86 97/117/98 108/116/108
f 2/2/2 1/1/1 109/118/109
f 3/3/5 2/2/2 109/119/109
f 4/4/7 3/3/5 109/120/109
f 5/5/9 4/4/7 109/121/109
f 6/6/11 5/5/9 109/122/109
f 7/7/13 6/6/11 109/123/109
f 8/8/15 7/7/13 109/124/109
f 9/9/17 8/8/15 109/125/109
f 10/10/19 9/9/17 109/126/109
f 11/11/21 10/10/19 109/127/109
f 12/12/23 11/11/21 109/128/109
f 1/13/1 12/12/23 109/129/109
f 97/105/98 98/106/97 110/130/110
f 98/106/97 99/107/99 110/131/110
f 99/107/99 100/108/100 110/132/110
f 100/108/100 101/109/101 110/133/110
f 101/109/101 102/110/102 110/134/110
f 102/110/102 103/111/103 110/135/110
f 103/111/103 104/112/104 110/136/110
f 104/112/104 105/113/105 110/137/110
f 105/113/105 106/114/106 110/138/110
f 106/114/106 107/115/107 110/139/110
f 107/115/107 108/116/108 110/140/110
f 108/116/108 97/117/98 110/141/110
s 3
f 49/53/111 50/54/112 112/143/113 113/144/114
f 50/54/112 51/55/115 111/142/116 112/143/113
f 112/143/113 111/142/116 57/61/117 58/62/118
f 113/144/114 112/143/113 58/62/118 59/63/119
s off
f 59/145/120 60/146/121 113/147/122
f 60/148/123 49/149/124 113/150/125
s 1
f 62/151/69 61/152/68 114/153/126 115/154/127
f 63/155/62 62/156/69 115/157/127 51/158/128
f 70/159/79 69/160/67 57/161/129 116/162/130
f 71/163/81 70/164/79 116/165/130 117/166/131
f 72/167/83 71/168/81 117/169/131 118/170/132
f 61/171/68 72/172/83 118/173/132 114/174/126
s 4
f 51/158/133 115/157/134 120/176/135 111/178/136
f 115/154/134 114/153/137 119/175/138 120/177/135
f 120/177/135 119/175/138 117/166/139 116/165/140
f 111/178/136 120/176/135 116/162/140 57/161/141
s 5
f 118/179/142 117/180/143 119/181/144
f 114/182/145 118/183/142 119/184/144
